<mxfile host="app.diagrams.net" modified="2021-08-12T18:22:48.726Z" agent="5.0 (Windows NT 10.0; Win64; x64) AppleWebKit/537.36 (KHTML, like Gecko) Chrome/92.0.4515.131 Safari/537.36" etag="-oye2x_KSNMl8JhX0aRM" version="14.5.10" type="github">
  <diagram id="DKrhHUluCWIVFyrzkwsj" name="Page-1">
    <mxGraphModel dx="2097" dy="721" grid="1" gridSize="10" guides="1" tooltips="1" connect="1" arrows="1" fold="1" page="1" pageScale="1" pageWidth="850" pageHeight="1100" math="0" shadow="0">
      <root>
        <mxCell id="0" />
        <mxCell id="1" parent="0" />
        <mxCell id="RKl10hj2ZlnLJY-Md3Rz-1" value="" style="rounded=0;whiteSpace=wrap;html=1;strokeWidth=5;fillColor=#647687;strokeColor=#314354;fontColor=#ffffff;" vertex="1" parent="1">
          <mxGeometry x="250" y="470" width="1430" height="240" as="geometry" />
        </mxCell>
        <mxCell id="RKl10hj2ZlnLJY-Md3Rz-9" value="" style="rounded=0;whiteSpace=wrap;html=1;" vertex="1" parent="1">
          <mxGeometry x="50" y="710" width="200" height="540" as="geometry" />
        </mxCell>
        <mxCell id="RKl10hj2ZlnLJY-Md3Rz-10" value="" style="rounded=0;whiteSpace=wrap;html=1;" vertex="1" parent="1">
          <mxGeometry x="850" y="430" width="200" height="320" as="geometry" />
        </mxCell>
        <mxCell id="RKl10hj2ZlnLJY-Md3Rz-11" value="" style="rounded=0;whiteSpace=wrap;html=1;" vertex="1" parent="1">
          <mxGeometry x="50" y="440" width="200" height="270" as="geometry" />
        </mxCell>
        <mxCell id="RKl10hj2ZlnLJY-Md3Rz-12" value="" style="rounded=0;whiteSpace=wrap;html=1;" vertex="1" parent="1">
          <mxGeometry x="1680" y="430" width="200" height="300" as="geometry" />
        </mxCell>
        <mxCell id="RKl10hj2ZlnLJY-Md3Rz-13" value="Review" style="text;html=1;strokeColor=none;fillColor=none;align=center;verticalAlign=middle;whiteSpace=wrap;rounded=0;fontSize=24;" vertex="1" parent="1">
          <mxGeometry x="885" y="430" width="140" height="60" as="geometry" />
        </mxCell>
        <mxCell id="RKl10hj2ZlnLJY-Md3Rz-14" value="User" style="text;html=1;strokeColor=none;fillColor=none;align=center;verticalAlign=middle;whiteSpace=wrap;rounded=0;fontSize=24;" vertex="1" parent="1">
          <mxGeometry x="1700" y="440" width="140" height="60" as="geometry" />
        </mxCell>
        <mxCell id="RKl10hj2ZlnLJY-Md3Rz-16" value="" style="html=1;shadow=0;dashed=0;align=center;verticalAlign=middle;shape=mxgraph.arrows2.arrow;dy=0.6;dx=40;notch=0;" vertex="1" parent="1">
          <mxGeometry x="310" y="490" width="470" height="30" as="geometry" />
        </mxCell>
        <mxCell id="RKl10hj2ZlnLJY-Md3Rz-17" value="" style="html=1;shadow=0;dashed=0;align=center;verticalAlign=middle;shape=mxgraph.arrows2.arrow;dy=0.6;dx=40;notch=0;" vertex="1" parent="1">
          <mxGeometry x="1130" y="490" width="470" height="30" as="geometry" />
        </mxCell>
        <mxCell id="RKl10hj2ZlnLJY-Md3Rz-18" value="" style="html=1;shadow=0;dashed=0;align=center;verticalAlign=middle;shape=mxgraph.arrows2.arrow;dy=0.6;dx=40;flipH=1;notch=0;" vertex="1" parent="1">
          <mxGeometry x="320" y="660" width="460" height="30" as="geometry" />
        </mxCell>
        <mxCell id="RKl10hj2ZlnLJY-Md3Rz-19" value="" style="html=1;shadow=0;dashed=0;align=center;verticalAlign=middle;shape=mxgraph.arrows2.arrow;dy=0.6;dx=40;flipH=1;notch=0;" vertex="1" parent="1">
          <mxGeometry x="1135" y="660" width="460" height="30" as="geometry" />
        </mxCell>
        <mxCell id="RKl10hj2ZlnLJY-Md3Rz-21" value="" style="html=1;shadow=0;dashed=0;align=center;verticalAlign=middle;shape=mxgraph.arrows2.arrow;dy=0.67;dx=20;notch=0;fillColor=#f8cecc;strokeColor=#b85450;gradientColor=#ea6b66;" vertex="1" parent="1">
          <mxGeometry x="280" y="550" width="1370" height="20" as="geometry" />
        </mxCell>
        <mxCell id="RKl10hj2ZlnLJY-Md3Rz-22" value="" style="html=1;shadow=0;dashed=0;align=center;verticalAlign=middle;shape=mxgraph.arrows2.arrow;dy=0.67;dx=20;notch=0;direction=west;gradientColor=#ea6b66;fillColor=#f8cecc;strokeColor=#b85450;" vertex="1" parent="1">
          <mxGeometry x="270" y="610" width="1380" height="20" as="geometry" />
        </mxCell>
        <mxCell id="RKl10hj2ZlnLJY-Md3Rz-23" value="Review belongs to User" style="text;html=1;strokeColor=none;fillColor=none;align=center;verticalAlign=middle;whiteSpace=wrap;rounded=0;fontSize=20;" vertex="1" parent="1">
          <mxGeometry x="1120" y="470" width="510" height="30" as="geometry" />
        </mxCell>
        <mxCell id="RKl10hj2ZlnLJY-Md3Rz-24" value="User Has Many Reviews" style="text;html=1;strokeColor=none;fillColor=none;align=center;verticalAlign=middle;whiteSpace=wrap;rounded=0;fontSize=20;" vertex="1" parent="1">
          <mxGeometry x="1120" y="680" width="510" height="30" as="geometry" />
        </mxCell>
        <mxCell id="RKl10hj2ZlnLJY-Md3Rz-5" value="" style="endArrow=none;dashed=1;html=1;exitX=0;exitY=0.25;exitDx=0;exitDy=0;entryX=1;entryY=0.25;entryDx=0;entryDy=0;fillColor=#ffcd28;strokeColor=#d79b00;gradientColor=#ffa500;strokeWidth=4;" edge="1" parent="1" source="RKl10hj2ZlnLJY-Md3Rz-1" target="RKl10hj2ZlnLJY-Md3Rz-1">
          <mxGeometry width="50" height="50" relative="1" as="geometry">
            <mxPoint x="940" y="590" as="sourcePoint" />
            <mxPoint x="990" y="540" as="targetPoint" />
          </mxGeometry>
        </mxCell>
        <mxCell id="RKl10hj2ZlnLJY-Md3Rz-6" value="" style="endArrow=none;dashed=1;html=1;exitX=0;exitY=0.75;exitDx=0;exitDy=0;entryX=1;entryY=0.75;entryDx=0;entryDy=0;gradientColor=#ffa500;fillColor=#ffcd28;strokeColor=#d79b00;strokeWidth=4;" edge="1" parent="1" source="RKl10hj2ZlnLJY-Md3Rz-1" target="RKl10hj2ZlnLJY-Md3Rz-1">
          <mxGeometry width="50" height="50" relative="1" as="geometry">
            <mxPoint x="940" y="590" as="sourcePoint" />
            <mxPoint x="990" y="540" as="targetPoint" />
          </mxGeometry>
        </mxCell>
        <mxCell id="RKl10hj2ZlnLJY-Md3Rz-4" value="" style="endArrow=none;html=1;exitX=0;exitY=0.5;exitDx=0;exitDy=0;entryX=1;entryY=0.5;entryDx=0;entryDy=0;strokeWidth=5;" edge="1" parent="1" source="RKl10hj2ZlnLJY-Md3Rz-1" target="RKl10hj2ZlnLJY-Md3Rz-1">
          <mxGeometry width="50" height="50" relative="1" as="geometry">
            <mxPoint x="940" y="590" as="sourcePoint" />
            <mxPoint x="990" y="540" as="targetPoint" />
          </mxGeometry>
        </mxCell>
        <mxCell id="RKl10hj2ZlnLJY-Md3Rz-15" value="Game" style="text;html=1;strokeColor=none;fillColor=none;align=center;verticalAlign=middle;whiteSpace=wrap;rounded=0;fontSize=24;" vertex="1" parent="1">
          <mxGeometry x="80" y="440" width="140" height="60" as="geometry" />
        </mxCell>
        <mxCell id="RKl10hj2ZlnLJY-Md3Rz-25" value="Game has many Reviews" style="text;html=1;strokeColor=none;fillColor=none;align=center;verticalAlign=middle;whiteSpace=wrap;rounded=0;fontSize=20;" vertex="1" parent="1">
          <mxGeometry x="295" y="470" width="510" height="30" as="geometry" />
        </mxCell>
        <mxCell id="RKl10hj2ZlnLJY-Md3Rz-26" value="Reviews belongs to Game" style="text;html=1;strokeColor=none;fillColor=none;align=center;verticalAlign=middle;whiteSpace=wrap;rounded=0;fontSize=20;" vertex="1" parent="1">
          <mxGeometry x="290" y="680" width="510" height="30" as="geometry" />
        </mxCell>
        <mxCell id="RKl10hj2ZlnLJY-Md3Rz-27" value="Game have many User Through Review" style="text;html=1;strokeColor=none;fillColor=none;align=center;verticalAlign=middle;whiteSpace=wrap;rounded=0;fontSize=20;" vertex="1" parent="1">
          <mxGeometry x="770" y="530" width="410" height="35" as="geometry" />
        </mxCell>
        <mxCell id="RKl10hj2ZlnLJY-Md3Rz-30" value="Game have many User Through Review" style="text;html=1;strokeColor=none;fillColor=none;align=center;verticalAlign=middle;whiteSpace=wrap;rounded=0;fontSize=20;" vertex="1" parent="1">
          <mxGeometry x="770" y="620" width="410" height="35" as="geometry" />
        </mxCell>
      </root>
    </mxGraphModel>
  </diagram>
</mxfile>
